<?xml version="1.0" encoding="utf-8"?>
<!-- Generator: Adobe Illustrator 17.0.0, SVG Export Plug-In . SVG Version: 6.00 Build 0)  -->
<!DOCTYPE svg PUBLIC "-//W3C//DTD SVG 1.1//EN" "http://www.w3.org/Graphics/SVG/1.1/DTD/svg11.dtd">
<svg version="1.1" id="Layer_1" xmlns="http://www.w3.org/2000/svg" xmlns:xlink="http://www.w3.org/1999/xlink" x="0px" y="0px"
	 width="1594.611px" height="530.85px" viewBox="0 0 1594.611 530.85" enable-background="new 0 0 1594.611 530.85"
	 xml:space="preserve">
<g>
	<g>
		<path fill="#630D0D" d="M1276.885,8.871c14.46-13.87,42.21-11.2,53.01,6.08c7,11.27,8.04,25.02,8.04,37.96
			c0.03,89.04-0.15,178.08,0.01,267.12c43.77-45.6,87.23-91.5,130.89-137.2c13.56-14.09,26.68-28.71,41.73-41.26
			c14.56-12.68,41.18-9.36,49.86,8.72c4.64,9.07,2.67,19.89-3.37,27.79c-9.49,14.79-22.35,26.97-35.39,38.57
			c-20.37,18.8-41,37.34-61.21,56.29c40.21,63.85,81.13,127.27,121.31,191.15c5.6,10.21,14.47,20.28,12.59,32.76
			c-0.26,14.07-8.85,28.65-23.05,32.31c-10.74,2.39-24.42,2.75-32.16-6.46c-12.77-14.67-23.14-31.22-33.13-47.85
			c-30.93-50.93-61.99-101.79-92.87-152.75c-24.47,21.71-47.69,45.03-71.76,67.27c-1.49,1.56-3.85,2.97-3.46,5.46
			c-0.02,29.69,0.04,59.39-0.03,89.09c-0.13,13.12-3.16,27.46-13.42,36.52c-13.78,14.25-40.56,13.75-52.43-2.66
			c-7.43-10.66-8.62-24.2-8.63-36.82c0.01-135.69,0-271.37,0-407.05C1263.665,52.001,1261.165,26.481,1276.885,8.871z"/>
	</g>
	<g>
		<g>
			<path fill="#FFCD05" d="M14.075,14.071c13.22-8.5,29.66-8.57,44.85-8.58c50.33,0.04,100.66,0.03,150.98,0.17
				c36.53,1.13,74.9,2.78,107.79,20.51c40.92,21.24,64.1,66.76,66.23,111.74c1.98,34.15-1.85,70.25-19.93,100.03
				c-11.04,18.19-27.23,33.05-45.89,43.2c-43.34,23.32-94.01,25.68-142.18,24.94c-33.55,0.03-67.1-0.06-100.65,0.04
				c-0.04,57.93-0.01,115.86-0.01,173.79c-0.07,13.81-1.62,29.25-11.55,39.78c-11.29,12.81-32.01,14.03-46.19,5.6
				c-14.15-8.85-17.41-26.92-17.51-42.38c0.01-143.66-0.06-287.32,0.04-430.99C0.715,38.551,2.325,22.591,14.075,14.071z
				 M75.275,53.121c-0.06,68.36,0.02,136.71-0.03,205.07c29.22,0.32,58.45,0.04,87.68,0.14c25.4,0.15,51.14-1.32,75.62-8.56
				c23.67-6.72,45.8-21.64,57.6-43.65c11.44-21.29,13.42-46.54,10.13-70.15c-4.1-27.66-19.7-55.22-45.81-67.35
				c-33.34-15.97-71.39-15.49-107.54-15.54C127.045,53.111,101.165,53.021,75.275,53.121z"/>
		</g>
	</g>
	<g>
		<path fill="#F7981D" d="M467.425,54.671c16.13-3.54,33.86,2.67,44.22,15.53c11.09,13.17,13.48,32.87,5.82,48.29
			c-7.46,15.98-24.96,26.54-42.59,25.55c-18.75-0.44-36.15-13.97-41.37-31.94C425.295,87.771,442.205,59.231,467.425,54.671z"/>
		<path fill="#F7981D" d="M466.335,192.711c13.8-3.02,30.07-0.08,38.95,11.78c7.28,9.82,8.75,22.55,9.05,34.43
			c0.02,79.33,0,158.66,0.01,237.99c0.15,13.14-0.63,27.14-7.68,38.63c-10.28,16.15-34.28,19.41-49.96,9.7
			c-13.72-8.76-17.32-26.14-17.57-41.32c-0.11-80.68-0.02-161.36-0.05-242.04C438.125,222.481,444.515,197.411,466.335,192.711z"/>
	</g>
	<g>
		<path fill="#CA2126" d="M1133.365,54.731c15.67-3.53,32.95,2.07,43.48,14.23c11.85,13.03,14.72,33.21,7.11,49.08
			c-7.26,15.97-24.5,26.75-42.07,26.03c-18.44-0.12-35.82-12.95-41.59-30.42C1091.005,89.191,1107.695,59.561,1133.365,54.731z"/>
		<path fill="#CA2126" d="M1136.225,192.081c10.9-1.34,23.04,0.37,31.32,8.19c10.66,9.3,12.55,24.49,13.03,37.82
			c0.05,78.28,0,156.55,0.02,234.82c0.13,12.21,0.09,24.83-4.46,36.36c-8.23,23.48-43.15,28.63-59.35,10.77
			c-9.55-10.13-11.12-24.92-11.43-38.21c-0.03-80.57-0.03-161.14,0-241.7C1104.215,220.041,1113.085,194.221,1136.225,192.081z"/>
	</g>
	<g>
		<path fill="#F16722" d="M567.055,223.001c-2.82-17.65,13.47-34.51,30.9-34.42c9.39-0.25,21.02,1.09,26.2,10.11
			c6.95,12.39,11.04,26.12,15.15,39.64c20.82,71.45,41.67,142.89,62.46,214.34c22-75.82,42.79-152,65.56-227.59
			c3.72-15.84,14.48-31.81,31.29-35.33c13.82-2.51,30.25-1.88,40.86,8.57c12.37,10.49,15.41,27.08,20.35,41.7
			c20.6,70.64,40.4,141.53,60.84,212.22c24.53-81.26,47.73-162.94,72.44-244.13c8.12-25.59,46.93-25.58,58.92-3.23
			c8.26,14.45,0.81,31.31-3.39,45.86c-28.25,81.17-54.78,162.96-83.91,243.82c-5.41,18.27-20.18,36.36-40.85,35.92
			c-17.45,2.29-34.95-6.87-42.6-22.76c-7.09-14.48-10.85-30.32-15.47-45.7c-18.4-62.65-36.71-125.32-55.19-187.94
			c-19.27,67.92-38.4,135.89-57.84,203.76c-5.56,15.56-10.06,32.87-22.18,44.75c-18.67,13.02-49.2,11.04-62.65-8.75
			c-9.54-13.57-13.95-29.77-19.61-45.14c-22.76-67.1-45.38-134.25-68.09-201.36C575.475,252.691,569.475,238.301,567.055,223.001z"
			/>
	</g>
</g>
</svg>
